<?xml version="1.0" standalone="no"?>
<!DOCTYPE svg PUBLIC "-//W3C//DTD SVG 20010904//EN"
 "http://www.w3.org/TR/2001/REC-SVG-20010904/DTD/svg10.dtd">
<svg version="1.0" xmlns="http://www.w3.org/2000/svg"
 width="250.000000pt" height="250.000000pt" viewBox="0 0 250.000000 250.000000"
 preserveAspectRatio="xMidYMid meet">
<metadata>
Created by potrace 1.14, written by Peter Selinger 2001-2017
</metadata>
<g transform="translate(0.000000,250.000000) scale(0.100000,-0.100000)"
fill="#000000" stroke="none">
<path d="M0 1250 l0 -1250 1250 0 1250 0 0 1250 0 1250 -1250 0 -1250 0 0
-1250z m1996 771 c101 -46 151 -177 105 -276 -64 -139 -252 -167 -348 -51 -54
66 -67 150 -34 221 48 104 174 153 277 106z m-1320 -20 c101 -46 151 -177 105
-276 -64 -139 -252 -167 -348 -51 -54 66 -67 150 -34 221 48 104 174 153 277
106z m1646 -640 c27 -24 31 -34 31 -77 -1 -63 -20 -118 -99 -280 -66 -136
-167 -274 -249 -337 -100 -79 -264 -123 -490 -133 -309 -14 -631 48 -845 163
-180 96 -297 202 -419 383 -97 144 -104 218 -24 259 54 27 106 5 138 -59 54
-108 162 -239 249 -305 146 -108 288 -168 520 -217 134 -28 451 -31 564 -5
128 29 166 52 243 140 73 85 170 264 205 382 19 65 38 93 69 106 39 16 74 9
107 -20z"/>
</g>
</svg>
