<svg xmlns="http://www.w3.org/2000/svg" height="334.136" opacity=".5" viewBox="2.014 3.896 353.785 334.136" width="353.785"><path d="m156.779 296.449c0 2.315.911.998 1.821-.066-.838-.636-1.065-.658-1.821.066z"></path><path d="m155.132 260.742c.191.625.782.099.591-.362-.191-.46-.782-.23-.591.362z"></path><path d="m156.087 214.733c-.373.877 1.166 1.196 1.448.439-.046-.703-1.129-1.186-1.448-.439z"></path><path d="m155.187 74.7163c-.373.8778 1.165 1.1851 1.447.4389-.054-.6913-1.128-1.1741-1.447-.4389z"></path><path d="m147.476 184.26c-.482-.219-.61.329-.291.713.318.384.818-.482.291-.713z"></path><path d="m154.977 266.01c-.098-.184-.233-.335-.392-.439-.159-.105-.337-.159-.518-.159-.182 0-.36.054-.519.159-.159.104-.294.255-.392.439.098.183.233.334.392.438.159.105.337.16.519.16.181 0 .359-.055.518-.16.159-.104.294-.255.392-.438z"></path><path d="m152.874 46.4059c-.364-.2192-.828.4823-.291.7125.536.2302.609-.3507.291-.7125z"></path><path d="m153.93 137.756c-.291-.35-.782-.263-.601.362.182.625.782.099.601-.362z"></path><path d="m168.331 317.934c-.282-.351-.782-.263-.591.35.191.614.782.099.591-.35z"></path><path d="m167.43 241.957c-.282-.351-.782-.264-.591.361s.782.088.591-.361z"></path><path d="m169.233 195.288c-.191-.625-.791-.099-.6.362.191.46.782.252.6-.362z"></path><path d="m164.891 328.951c.236.307.91 1.427 1.256 1.47.728.088.491-1.031.546-1.503-.112-.157-.252-.282-.408-.367-.157-.085-.328-.128-.5-.125-.171.004-.341.052-.495.143-.155.09-.291.221-.399.382z"></path><path d="m165.037 325.889c.191.614.782.098.6-.362s-.791-.263-.6.362z"></path><path d="m166.529 207.577c.182-.581-.282-.734-.591-.35-.309.383.391.997.591.35z"></path><path d="m164.199 88.8276c-.382.8888 1.157 1.1961 1.439.4389-.037-.6913-1.129-1.1741-1.439-.4389z"></path><path d="m145.518 69.0212c-.146.1754-.609 1.2826.082 1.0086.463-.2193.173-.8112-.082-1.0086z"></path><path d="m161.586 257.691c.482.208.609-.34.291-.723-.364-.22-.828.482-.291.723z"></path><path d="m160.385 34.8184c.246.3072.91 1.4155 1.256 1.4704.728.0877.492-.9876.546-1.4595-.104-.1688-.24-.306-.396-.4009s-.328-.1448-.503-.1459c-.174-.0011-.347.0468-.504.1398s-.293.2285-.399.3961z"></path><path d="m163.079 8.77936c.098.18346.233.33431.392.43877.159.10447.337.1592.518.1592.182 0 .36-.05473.519-.1592.159-.10446.294-.25531.392-.43877-.098-.18345-.233-.33431-.392-.43877s-.337-.15919-.519-.15919c-.181 0-.359.05473-.518.15919s-.294.25532-.392.43877z"></path><path d="m159.475 216.082c.099.181.235.33.393.432.159.103.337.157.517.157s.358-.054.517-.157c.158-.102.294-.251.393-.432-.099-.181-.235-.33-.393-.432-.159-.103-.337-.157-.517-.157s-.358.054-.517.157c-.158.102-.294.251-.393.432z"></path><path d="m130.361 5.15807c-.355-.21924-.827.48234-.291.7235.537.24117.609-.33982.291-.7235z"></path><path d="m119.173 157.201c-.373.889 1.166 1.207 1.448.45-.046-.714-1.129-1.153-1.448-.45z"></path><path d="m122.259 289.173c.291-.351.218-.943-.291-.724-.509.22-.082.943.291.724z"></path><path d="m119.254 25.7875c-.518.2302-.081.9427.291.7235.373-.2193.228-.9428-.291-.7235z"></path><path d="m120.757 44.8916c-.255 1.1851.911 1.6569.911.2304-.01-.9327-.692-1.2728-.911-.2304z"></path><path d="m112.81 191.304c.282.351.782.263.591-.361-.191-.625-.782-.099-.591.361z"></path><path d="m117.006 115.327c.182-.439-.391-1.009-.591-.362s.273.746.591.362z"></path><path d="m139.674 227.988c0-2.316-.91-.999-1.82.066.828.592 1.065.603 1.82-.066z"></path><path d="m136.669 273.975c.291-.35.219-.942-.3-.723-.518.219-.082.954.3.723z"></path><path d="m134.54 300.037c.11.12.244.203.389.24s.295.027.436-.029c.14-.056.266-.155.364-.289.099-.133.166-.296.195-.471-.455-.548-2.03-.428-1.384.549z"></path><path d="m144.926 136.67c-.291-.34-.791-.252-.6.362s.782.098.6-.362z"></path><path d="m140.42 196.374c-.291-.35-.782-.263-.591.351s.782.099.591-.351z"></path><path d="m143.935 231.839c1.165.341 1.238-1.47.254-1.097-.746 0-1.128.845-.254 1.097z"></path><path d="m142.588 10.6777c-.374.8888 1.156 1.185 1.438.4498-.036-.7132-1.102-1.20699-1.438-.4498z"></path><path d="m209.006 218.255c-.098-.184-.233-.335-.392-.439-.159-.105-.337-.159-.518-.159s-.359.054-.518.159c-.16.104-.294.255-.392.439.098.183.232.334.392.438.159.105.337.16.518.16s.359-.055.518-.16c.159-.104.294-.255.392-.438z"></path><path d="m207.95 156.575c.182-.439-.391-1.009-.591-.362s.282.745.591.362z"></path><path d="m208.26 265.131c.191.614.782.099.591-.362-.191-.46-.782-.285-.591.362z"></path><path d="m205.738 331.496c.482.208.609-.34.291-.723-.391-.22-.864.482-.291.723z"></path><path d="m210.053 13.2996c.291.3508.782.2631.6-.3508s-.791-.0987-.6.3508z"></path><path d="m205.092 223.313c-.574.055-.974 1.361-.364 1.745s1.01-1.404.364-1.745z"></path><path d="m210.062 204.329c.191.614.782.088.591-.361-.191-.45-.782-.285-.591.361z"></path><path d="m201.35 169.951c-.15.121-.274.284-.359.475-.085.192-.13.405-.13.623 0 .217.045.431.13.622.085.192.209.355.359.475.15-.12.273-.283.359-.475.085-.191.129-.405.129-.622 0-.218-.044-.431-.129-.623-.086-.191-.209-.354-.359-.475z"></path><path d="m204.353 303.098c.182-.439-.4-1.009-.6-.362s.282.8.6.362z"></path><path d="m215.37 16.46c.155.57.673.2192.837-.0877-.146-.1754-1.064-.7345-.837.0877z"></path><path d="m224.163 238.697c-.291-.35-.782-.263-.6.362s.791.099.6-.362z"></path><path d="m223.034 134.146c.135-.132.244-.3.319-.49.075-.189.114-.397.114-.607s-.039-.418-.114-.607c-.075-.19-.184-.358-.319-.49-.255.296-1.174 1.097-1.22 1.525-.136.9.792.603 1.22.669z"></path><path d="m213.503 162.907c.098.183.233.334.392.439.159.104.337.159.518.159s.36-.055.519-.159c.159-.105.293-.256.392-.439-.099-.184-.233-.335-.392-.439s-.338-.159-.519-.159-.359.055-.518.159-.294.255-.392.439z"></path><path d="m214.932 78.7094c.473-.1863.173-.8112-.072-1.0085-.146.1754-.619 1.2826.072 1.0085z"></path><path d="m211.856 337.827c.291.351.782.264.591-.35s-.782-.099-.591.35z"></path><path d="m212.156 140.653c-.146.176-.619 1.283.072 1.009.473-.187.173-.811-.072-1.009z"></path><path d="m212.01 4.08267c-.518.23021-.082.94275.3.71254.382-.2302.209-.94274-.3-.71254z"></path><path d="m218.756 23.8011c-.191-.6249-.782-.0987-.601.3508.182.4494.792.2631.601-.3508z"></path><path d="m173.293 202.332c.482.219.609-.34.291-.712-.318-.373-.828.471-.291.712z"></path><path d="m174.413 257.801c.473-.187.173-.811-.073-1.009-.145.176-.618 1.283.073 1.009z"></path><path d="m179.137 103.027c-.291-.351-.782-.264-.591.361s.791.099.591-.361z"></path><path d="m178.537 222.414c-.182.438.4 1.008.6.361s-.282-.734-.6-.361z"></path><path d="m176.798 128.704c-.992-.307-1.374 1.097-.191 1.097.765 0 1.056-.823.191-1.097z"></path><path d="m176.743 222.424c-.182.581.282.735.591.351s-.391-.997-.591-.351z"></path><path d="m176.798 138.755c-.373.889 1.166 1.185 1.448.439-.037-.702-1.129-1.196-1.448-.439z"></path><path d="m175.541 195.65c.182-.439-.4-1.009-.6-.362s.282.712.6.362z"></path><path d="m178.236 121.845c.181-.439-.391-1.009-.592-.362-.2.647.273.735.592.362z"></path><path d="m191.573 298.929c.218-.147.384-.385.465-.67l-.155.253c.464-1.558-1.748.911-.31.417z"></path><path d="m189.716 20.1025c.472-.1863.172-.8112-.073-1.0085-.146.1754-.618 1.3374.073 1.0085z"></path><path d="m187.995 268.544c.509-.231.073-.943-.3-.724s-.218.943.3.724z"></path><path d="m193.548 256.068c-.291-.351-.782-.263-.6.351.181.613.791.098.6-.351z"></path><path d="m192.137 298.05c.137-.384.237-.778.3-.954-.773.483-.609.888-.3.954z"></path><path d="m191.518 118.871c.473-.187.173-.811-.072-1.009-.146.231-.619 1.327.072 1.009z"></path><path d="m192.201 298.05c.132-.02.253-.094.345-.21.091-.116.146-.266.155-.426.009-.142-.273.242-.5.636z"></path><path d="m186.047 306.72c.152-.119.277-.281.364-.473s.132-.406.132-.625c0-.218-.045-.433-.132-.625-.087-.191-.212-.354-.364-.472-.152.118-.277.281-.364.472-.087.192-.132.407-.132.625 0 .219.045.433.132.625s.212.354.364.473z"></path><path d="m182.588 34.4561c-.592 0-1.002 1.3606-.374 1.7447.628.384.983-1.3936.374-1.7447z"></path><path d="m186.192 94.1605c-.364-.2192-.836.4823-.3.7235.537.2412.618-.3398.3-.7235z"></path><path d="m35.9663 327.678c-.191-.614-.7911-.099-.6002.362.191.46.7821.285.6002-.362z"></path><path d="m26.0535 249.911c.1819-.592-.2728-.745-.591-.361-.1819.438.4001 1.008.591.361z"></path><path d="m26.6634 180.815c-.1455.175-.6183 1.282.0728 1.008.4728-.186.1728-.811-.0728-1.008z"></path><path d="m26.5089 136.495c-.2819.35-.2091.942.3001.712.5093-.23.0819-.943-.3001-.712z"></path><path d="m30.5682 286.452c-.2909-.34-.782-.252-.6001.362.1818.614.782.099.6001-.362z"></path><path d="m29.6668 323.716c.1819-.438-.4001-.997-.6001-.351-.2001.647.2819.735.6001.351z"></path><path d="m49.031 135.034c.482.22.6093-.328.291-.712-.3637-.219-.8275.482-.291.712z"></path><path d="m49.1582 14.7485c-.1522.1184-.2774.2808-.364.4725-.0867.1917-.1321.4065-.1321.6248s.0454.4332.1321.6249c.0866.1917.2118.3541.364.4724.1522-.1183.2773-.2807.364-.4724s.1321-.4066.1321-.6249-.0454-.4331-.1321-.6248-.2118-.3541-.364-.4725z"></path><path d="m53.0719 184.425c-.2819-.34-.782-.252-.591.362.1909.613.782.098.591-.362z"></path><path d="m50.3772 282.479c.1818-.438-.4002-1.008-.6002-.361-.2001.647.291.734.6002.361z"></path><path d="m48.5747 62.1297c.1818-.4385-.4001-.9976-.6002-.3508s.2728.7454.6002.3508z"></path><path d="m42.9403 287.077c.4728-.186.1728-.811-.0728-1.009-.1455.198-.6183 1.305.0728 1.009z"></path><path d="m41.6748 21.6284c-.1819.581.2819.7344.5911.3617.3091-.3727-.391-1.0085-.5911-.3617z"></path><path d="m44.9699 120.397c-.291-.351-.782-.263-.591.351.1909.613.782.098.591-.351z"></path><path d="m5.34297 32.5026c-.18187-.6248-.78203-.0987-.59107.3617.19096.4605.78203.2303.59107-.3617z"></path><path d="m9.10206 84.7564c-.14549-.1754-1.06392-.7454-.83658.0877.15458.57.6729.2083.83658-.0877z"></path><path d="m4.45068 85.667c-.19096-.6248-.79113-.0986-.60017.3508.19097.4495.78203.2522.60017-.3508z"></path><path d="m3.10333 128.527c.49105.22.61835-.339.30008-.712-.31826-.373-.83658.471-.30008.712z"></path><path d="m3.03985 77.69c-1.3018-.4499-1.14704 1.3606-.71917 2.1397.47338-.4499 1.92993-1.7337.71917-2.1397z"></path><path d="m23.8143 262.025c.491.22.6183-.328.3001-.712-.3183-.384-.8366.526-.3001.712z"></path><path d="m18.6336 335.94c.4729-.187.1728-.812-.0727-1.009-.1455.187-.6184 1.283.0727 1.009z"></path><path d="m20.81 246.478c-.0982-.184-.233-.335-.392-.439-.1591-.105-.3373-.159-.5184-.159s-.3593.054-.5184.159c-.159.104-.2938.255-.3919.439.0981.183.2329.334.3919.438.1591.105.3373.16.5184.16s.3593-.055.5184-.16c.159-.104.2938-.255.392-.438z"></path><path d="m19.1165 226.836c-.0728.878.8193.581 1.2017.647.1447-.125.2626-.289.3439-.48.0814-.191.1238-.403.1238-.617 0-.215-.0424-.426-.1238-.617-.0813-.191-.1992-.356-.3439-.48-.2094.34-1.1289 1.086-1.2017 1.547z"></path><path d="m21.2567 13.6624c-.2458.4499-.5007.801-.4188 1.3496.033.1652.0952.3199.1821.4535.087.1337.1968.2433.322.3214.1252.078.2628.1227.4036.131s.2814-.0199.4123-.0829c.1426-.1537.2575-.3412.3374-.5507.0798-.2096.123-.4367.1269-.6673-.082-.9656-.7738-.9546-1.3655-.9546z"></path><path d="m21.0378 161.019c.7283.45.9741-1.393.3642-1.744-.5827.055-.9832 1.36-.3642 1.744z"></path><path d="m20.9376 49.1156c.191.6249.7821.0987.5911-.3617s-.7547-.2521-.5911.3617z"></path><path d="m17.7333 282.764c.4728-.186.1727-.811-.0728-1.008-.1455.175-.6183 1.282.0728 1.008z"></path><path d="m15.0292 283.851c.4728-.187.1727-.811-.0728-1.009-.1455.176-.6183 1.283.0728 1.009z"></path><path d="m12.5529 224.948c.1819-.439-.391-.998-.5911-.351-.2.647.2728.734.5911.351z"></path><path d="m13.7554 76.252c.291.3508.782.2631.6001-.3508-.1818-.6139-.7911-.0987-.6001.3508z"></path><path d="m109.241 80.5862c.182.6249.782.0987.591-.3508-.191-.4494-.809-.263-.591.3508z"></path><path d="m90.8973 332.067c-.291-.351-.782-.263-.6001.351.1818.614.7911.077.6001-.351z"></path><path d="m87.2922 205.054c-.291-.351-.782-.263-.5911.351.191.614.7821.099.5911-.351z"></path><path d="m95.3943 304.909c-.191-.614-.7821-.099-.6002.362.1819.46.7911.263.6002-.362z"></path><path d="m92.6902 168.503c.1819-.581-.2819-.735-.591-.351-.3092.383.391.997.591.351z"></path><path d="m80.3925 133.455c-.1728.581.2819.734.6001.361.3183-.372-.4001-1.041-.6001-.361z"></path><path d="m79.7913 258.954c-.1502.12-.2735.283-.3587.475-.0853.191-.1299.405-.1299.622s.0446.431.1299.623c.0852.191.2085.354.3587.474.1502-.12.2734-.283.3587-.474.0852-.192.1299-.406.1299-.623s-.0447-.431-.1299-.622c-.0853-.192-.2085-.355-.3587-.475z"></path><path d="m82.4951 154.765c.1522-.119.2774-.281.364-.473.0867-.191.1321-.406.1321-.625 0-.218-.0454-.433-.1321-.624-.0866-.192-.2118-.355-.364-.473-.1522.118-.2773.281-.364.473-.0867.191-.1321.406-.1321.624 0 .219.0454.434.1321.625.0867.192.2118.354.364.473z"></path><path d="m82.8408 210.475c-.291-.34-.7912-.252-.6002.362.1909.613.7366.098.6002-.362z"></path><path d="m85.4899 5.34445c-.2819-.35078-.782-.26309-.5911.35079.191.61388.7821.09866.5911-.35079z"></path><path d="m82.3224 301.112c.1081.121.2409.204.3846.242.1438.038.2934.03.4334-.025s.2654-.154.3632-.286c.0978-.133.1646-.294.1934-.468-.4551-.549-2.03-.428-1.3746.537z"></path><path d="m81.9305 148.971c.1818-.592-.2728-.735-.5911-.362-.2273.438.3455 1.008.5911.362z"></path><path d="m108.677 26.6093c.472-.1863.172-.8112-.073-1.0085-.146.1754-.618 1.2826.073 1.0085z"></path><path d="m107.102 284.641c.181-.427-.401-.997-.592-.351-.19.647.273.735.592.351z"></path><path d="m110.552 90.9017c-.364-.2083-.828.4823-.291.7235.536.2411.609-.3399.291-.7235z"></path><path d="m79.1991 228.92c-.291-.35-.782-.263-.6002.362.1819.625.7821.099.6002-.362z"></path><path d="m109.805 181.538c.182-.438-.4-1.008-.591-.361-.191.646.272.745.591.361z"></path><path d="m100.356 184.962c.482.219.609-.329.291-.713-.364-.219-.8273.483-.291.713z"></path><path d="m98.0979 142.102c-.291-.351-.7821-.263-.5911.362.191.624.8093.087.5911-.362z"></path><path d="m101.958 36.7935c-.1.1303-.169.2903-.2.4636-.032.1733-.025.3536.021.5223.045.1688.127.3199.237.4378s.244.1984.388.2332c.465-.5487.392-2.447-.446-1.6569z"></path><path d="m105.299 86.018c.172-.581-.282-.7345-.601-.3618-.318.3728.4 1.0086.601.3618z"></path><path d="m104.397 177.918c-.282-.351-.782-.263-.591.361.191.625.782.099.591-.361z"></path><path d="m62.5307 332.582c.4911.209.6184-.34.3001-.723-.3637-.219-.8366.482-.3001.723z"></path><path d="m66.1362 171.937c.4819.219.6092-.329.3001-.713-.3638-.219-.8366.483-.3001.713z"></path><path d="m66.3543 4.90476c.4729-.18636.1728-.8112-.0727-1.00852-.1455.17539-.6183 1.28257.0727 1.00852z"></path><path d="m58.6445 220.976c-.7465 0-1.1288.845-.2549 1.098 1.1653.34 1.2472-1.471.2549-1.098z"></path><path d="m52.3177 178.445c-.2549 1.185.9104 1.657.9104.23 0-.977-.6828-1.328-.9104-.23z"></path><path d="m56.8324 280.121c-.0982-.184-.2329-.334-.392-.439-.159-.104-.3372-.159-.5183-.159s-.3594.055-.5184.159c-.159.105-.2938.255-.392.439.0982.183.233.334.392.439.159.104.3373.159.5184.159s.3593-.055.5183-.159c.1591-.105.2938-.256.392-.439z"></path><path d="m55.7756 154.04c-.291-.351-.782-.263-.5911.362.191.625.7821.088.5911-.362z"></path><path d="m53.8279 62.6899c-.3638-.2193-.8366.4713-.3001.7125s.6183-.3289.3001-.7125z"></path><path d="m56.4406 12.498c.4728-.1863.1728-.8112-.0728-1.0085-.1364.1644-.6092 1.2606.0728 1.0085z"></path><path d="m77.3784 8.60343c-.1909-.62485-.7911-.09866-.6002.36175.191.46041.7912.25213.6002-.36175z"></path><path d="m78.2883 36.8152c-.291-.3398-.782-.2521-.5911.3618.191.6138.7821.0986.5911-.3618z"></path><path d="m75.5578 58.5309c-.291-.3508-.782-.2631-.591.3507.1909.6139.8093.0987.591-.3507z"></path><path d="m70.3325 124.918c-.1455-.176-1.0639-.746-.8366.088.1546.57.673.208.8366-.088z"></path><path d="m68.5303 228.021c0 2.315.9103 1.097 1.8207 0-.1071-.168-.2449-.305-.4028-.399s-.3315-.143-.5076-.143c-.176 0-.3497.049-.5075.143-.1579.094-.2957.231-.4028.399z"></path><path d="m68.384 141.015c-.291-.35-.782-.263-.5911.362.191.625.7821.099.5911-.362z"></path><path d="m67.8573 336.852c.7374.461 1.0014-1.405.3733-1.745-.5826.055-.9832 1.35-.3733 1.745z"></path><path d="m73.4827 253.533c-.1454.176-.6092 1.283.0728 1.009.4728-.187.1819-.811-.0728-1.009z"></path><path d="m72.3451 169.15c-.3732.878 1.1653 1.196 1.4475.439-.0546-.702-1.1288-1.185-1.4475-.439z"></path><path d="m70.9333 97.4196c-.3637-.2193-.8275.4823-.2909.7125.5365.2302.6092-.3288.2909-.7125z"></path><path d="m331.457 190.328c-.255 1.196.911 1.657.911.231 0-.922-.683-1.273-.911-.231z"></path><path d="m332.367 35.9156c0 2.3043.911 1.0973 1.821 0-.106-.1704-.244-.3086-.402-.4038-.158-.0953-.332-.1449-.508-.1449-.177 0-.351.0496-.509.1449-.158.0952-.296.2334-.402.4038z"></path><path d="m339.194 264.308c.473-.187.173-.811-.073-1.009-.145.176-.618 1.283.073 1.009z"></path><path d="m333.241 245.38c.665.713 1.948.702 1.821-.669-.137-1.701-1.338.132-1.821.669z"></path><path d="m337.92 269.454c.292.34.783.253.592-.361s-.773-.099-.592.361z"></path><path d="m330.72 212.658c-.182.581.282.735.6.351.173-.438-.4-.997-.6-.351z"></path><path d="m326.341 154.589c.109.12.242.203.387.241.144.037.294.028.434-.026.141-.055.267-.153.365-.285.099-.132.167-.294.198-.468-.455-.548-2.03-.428-1.384.538z"></path><path d="m326.587 189.417c.473-.187.173-.811-.073-1.009-.145.176-.609 1.283.073 1.009z"></path><path d="m337.392 168.798c.473-.186.173-.811-.072-1.008-.146.175-.619 1.282.072 1.008z"></path><path d="m352.65 187.355c.6-.801.582-2.349-.556-2.195-1.447.165.073 1.613.556 2.195z"></path><path d="m353.077 67.9131c0-.9328-.682-1.2729-.91-.2305-.228 1.0425.901 1.657.91.2305z"></path><path d="m340.024 146.074c-.151.12-.274.283-.359.475-.085.191-.13.405-.13.623 0 .217.045.431.13.622.085.192.208.355.359.475.15-.12.273-.283.358-.475.086-.191.13-.405.13-.622 0-.218-.044-.432-.13-.623-.085-.192-.208-.355-.358-.475z"></path><path d="m353.078 30.4949c0 2.3044.91 1.0973 1.821 0-.106-.1703-.244-.3086-.402-.4038s-.332-.1448-.509-.1448c-.176 0-.35.0496-.508.1448s-.296.2335-.402.4038z"></path><path d="m353.979 116.227c.098.184.232.335.391.439.16.105.338.159.519.159s.359-.054.518-.159c.159-.104.294-.255.392-.439-.098-.183-.233-.334-.392-.438-.159-.105-.337-.16-.518-.16s-.359.055-.519.16c-.159.104-.293.255-.391.438z"></path><path d="m355.398 65.6845c.473-.1863.173-.8112-.072-1.0085-.146.1754-.619 1.2826.072 1.0085z"></path><path d="m344.375 8.0543c.491.20828.618-.33982.3-.7235-.318-.38367-.837.48234-.3.7235z"></path><path d="m344.821 98.6812c-.291-.3399-.783-.2522-.592.3617s.792.0987.592-.3617z"></path><path d="m343.328 290.797c-.182.592.273.746.591.362.191-.438-.391-1.008-.591-.362z"></path><path d="m341.971 113.341c.291-.351.218-.943-.3-.724-.518.22-.082.943.3.724z"></path><path d="m341.216 71.9066c.181-.581-.282-.7345-.591-.3508-.31.3837.391.9976.591.3508z"></path><path d="m347.224 18.0076c-.122-.0593-.253-.0882-.385-.0847-.132.0034-.262.039-.382.1047-.12.0656-.227.16-.316.2772-.089.1173-.157.2551-.201.4051-.154.6145.082.9437.383 1.4704.573 0 1.192 0 1.32-.834.034-.2478.013-.5021-.06-.7372-.074-.2351-.198-.4425-.359-.6015z"></path><path d="m347.224 261.137c.15-.12.273-.283.359-.474.085-.192.129-.406.129-.623s-.044-.431-.129-.623c-.086-.191-.209-.354-.359-.474-.15.12-.274.283-.359.474-.085.192-.13.406-.13.623s.045.431.13.623c.085.191.209.354.359.474z"></path><path d="m326.814 251.722c-.291-.35-.782-.263-.591.362s.782.099.591-.362z"></path><path d="m261.078 332.067c-.282-.351-.782-.263-.591.351s.782.077.591-.351z"></path><path d="m263.236 197.099c-.983-.307-1.365 1.097-.191 1.097.774 0 1.065-.845.191-1.097z"></path><path d="m262.18 106.988c0-.933-.683-1.273-.91-.23-.228 1.042.855 1.657.91.23z"></path><path d="m250.271 335.293c-.282-.34-.782-.252-.591.362s.782.099.591-.362z"></path><path d="m250.727 295.68c.491.208.619-.34.3-.724-.318-.383-.836.483-.3.724z"></path><path d="m251.173 239.059c.173-.592-.282-.745-.6-.362-.182.439.4 1.009.6.362z"></path><path d="m257.481 328.062c.182-.439-.4-1.009-.6-.362s.282.745.6.362z"></path><path d="m253.577 137.395c-.152.118-.277.28-.364.472s-.132.407-.132.625.045.433.132.625c.087.191.212.354.364.472.152-.118.277-.281.364-.472.087-.192.132-.407.132-.625s-.045-.433-.132-.625-.212-.354-.364-.472z"></path><path d="m251.756 172.146c-.528.966-.537 1.24.055 2.195 1.92-.044.828-1.164-.055-2.195z"></path><path d="m270.372 263.738c-.082.878.847.593 1.238.659.136-.133.244-.301.319-.49.075-.19.114-.398.114-.608s-.039-.417-.114-.607-.183-.357-.319-.49c-.273.307-1.192 1.075-1.238 1.536z"></path><path d="m270.255 236.163c-.756 0-1.129.856-.255 1.097 1.165.34 1.283-1.459.255-1.097z"></path><path d="m269.562 92.6354c.729.4499.974-1.3936.364-1.7338-.582.0439-.992 1.3607-.364 1.7338z"></path><path d="m270.081 42.6086c.182-.4385-.391-1.0085-.591-.3617-.201.6468.281.7454.591.3617z"></path><path d="m274.441 105.013c-.364-.219-.836.482-.3.723.537.241.609-.34.3-.723z"></path><path d="m272.784 21.9902c.182-.4385-.4-1.0085-.591-.3617-.191.6467.273.7344.591.3617z"></path><path d="m265.73 139.04c-.246-.307-.91-1.426-1.265-1.47-.728-.088-.483 1.032-.537 1.503.112.157.251.283.408.368s.327.127.499.124.342-.052.496-.142c.155-.091.291-.221.399-.383z"></path><path d="m267.086 326.252c.152-.119.277-.281.364-.473s.132-.406.132-.625c0-.218-.045-.433-.132-.625-.087-.191-.212-.354-.364-.472-.152.118-.277.281-.364.472-.087.192-.132.407-.132.625 0 .219.045.433.132.625s.212.354.364.473z"></path><path d="m267.386 272.702c.181-.438-.401-.997-.601-.35-.2.646.282.734.601.35z"></path><path d="m266.631 6.90281c-.264 1.1851.911 1.65694.911.23044-.009-.96563-.692-1.27288-.911-.23044z"></path><path d="m233.959 259.141c-.355-.22-.828.482-.291.712.536.23.564-.329.291-.712z"></path><path d="m235.269 192.029c-.172.592.282.745.601.362.181-.439-.401-1.009-.601-.362z"></path><path d="m239.465 36.0906c.182-.4385-.391-.9975-.591-.3508-.2.6468.282.7345.591.3508z"></path><path d="m236.771 74.0794c.182-.4385-.4-.9975-.6-.3508-.2.6468.282.7345.6.3508z"></path><path d="m228.496 270.716c.509-.23.082-.954-.3-.723-.382.23-.2.942.3.723z"></path><path d="m230.016 278.298c.491.22.619-.339.301-.712-.319-.373-.837.482-.301.712z"></path><path d="m231.137 207.873c.472-.186.172-.811-.073-1.008-.146.175-.619 1.282.073 1.008z"></path><path d="m246.448 177.478c.473-.186.173-.811-.073-1.009-.145.176-.582 1.283.073 1.009z"></path><path d="m246.703 189.132c.182-.439-.4-1.009-.6-.362s.254.745.6.362z"></path><path d="m243.972 52.0129c-.291-.3508-.782-.2631-.591.3618.191.6248.782.0986.591-.3618z"></path><path d="m240.677 122.92c.191.625.782.099.591-.361-.191-.461-.782-.253-.591.361z"></path><path d="m314.506 336.741c.291.351.782.263.601-.351-.182-.613-.792-.098-.601.351z"></path><path d="m303.764 150.694c-.373.889 1.165 1.185 1.448.439-.046-.703-1.157-1.218-1.448-.439z"></path><path d="m304.301 325.889c.182-.439-.4-1.009-.591-.351s.272.735.591.351z"></path><path d="m304.447 318.406c-.255 1.185.91 1.657.91.23 0-.932-.683-1.273-.91-.23z"></path><path d="m304.756 329.697c-.518.23-.082.943.3.713.382-.231.209-.943-.3-.713z"></path><path d="m307.606 127.628c-.583 0-1.166 0-1.293.823-.032.247-.013.499.055.734.069.236.184.447.336.616.123.059.254.088.385.085.132-.004.262-.039.382-.105s.228-.16.317-.277c.088-.117.157-.255.2-.405.155-.615-.091-.955-.382-1.471z"></path><path d="m328.462 94.1605c-.364-.2192-.828.4823-.291.7235.536.2412.609-.3398.291-.7235z"></path><path d="m325.903 197.811c.182-.427-.4-.997-.591-.35-.191.646.282.734.591.35z"></path><path d="m328.335 317.594c.601-.801.592-2.348-.546-2.195-1.448.209.063 1.613.546 2.195z"></path><path d="m326.969 207.403c-.1-.181-.235-.33-.394-.433-.158-.103-.336-.156-.516-.156s-.358.053-.517.156-.294.252-.394.433c.1.181.235.329.394.432s.337.157.517.157.358-.054.516-.157c.159-.103.294-.251.394-.432z"></path><path d="m322.608 300.925c.291.351.782.263.6-.351s-.782-.098-.6.351z"></path><path d="m323.054 163.257c.518-.23.082-.942-.291-.712s-.219.942.291.712z"></path><path d="m324.993 269.454c.182-.438-.4-1.008-.591-.361-.191.646.291.734.591.361z"></path><path d="m326.058 238.434c.146 1.745 1.348-.087 1.821-.669-.655-.724-1.975-.702-1.821.669z"></path><path d="m328.016 333.164c-.182.428.4.998.591.351s-.273-.767-.591-.351z"></path><path d="m329.545 74.0794c.182-.4385-.4-.9975-.6-.3508-.201.6468.254.7345.6.3508z"></path><path d="m329.545 192.391c.182-.439-.4-1.009-.6-.362-.201.647.254.745.6.362z"></path><path d="m320.287 182.91c.472-.187.172-.812-.073-1.009-.155.176-.618 1.283.073 1.009z"></path><path d="m318.712 171.411c-.291-.351-.782-.263-.6.351.182.613.791.098.6-.351z"></path><path d="m283.955 236.207c-.205-.041-.416-.016-.611.072-.195.089-.368.238-.499.433-.049.146-.073.303-.07.461s.032.314.087.458c.054.144.133.272.23.378.097.107.211.188.335.239.51.197.783-.099 1.22-.45 0-.691.036-1.438-.692-1.591z"></path><path d="m276.991 187.322c.152-.119.277-.281.364-.473.087-.191.132-.406.132-.624 0-.219-.045-.434-.132-.625-.087-.192-.212-.354-.364-.473-.152.119-.277.281-.364.473-.086.191-.132.406-.132.625 0 .218.046.433.132.624.087.192.212.354.364.473z"></path><path d="m276.745 293.958c-.373.889 1.156 1.185 1.438.45-.027-.746-1.12-1.196-1.438-.45z"></path><path d="m275.334 330.773c-.355-.22-.828.482-.291.723.536.241.609-.34.291-.723z"></path><path d="m275.335 204.868c-.592 0-1.002 1.36-.374 1.733s.983-1.393.374-1.733z"></path><path d="m276.536 216.082c.098.184.233.334.392.439.159.104.337.159.518.159.182 0 .36-.055.519-.159.159-.105.294-.255.392-.439-.098-.183-.233-.334-.392-.439-.159-.104-.337-.159-.519-.159-.181 0-.359.055-.518.159-.159.105-.294.256-.392.439z"></path><path d="m298.593 181.901c-.122-.061-.253-.091-.385-.088-.132.002-.263.038-.383.104-.12.065-.228.16-.317.278-.089.119-.156.257-.198.408-.155.615.081.944.382 1.471.573 0 1.192 0 1.32-.834.032-.248.011-.502-.063-.736-.073-.235-.196-.443-.356-.603z"></path><path d="m298.357 207.94c-.983-.307-1.375 1.097-.191 1.097.774 0 1.056-.822.191-1.097z"></path><path d="m299.577 16.8435c.472-.1864.172-.8112-.073-1.0085-.155.2082-.618 1.3045.073 1.0085z"></path><path d="m298.147 212.307c0-.899-.701-1.36-.91-.307-.283 1.405 1.22 1.493.91.307z"></path><path d="m287.496 231.455c.191.625.782.099.6-.351-.182-.449-.782-.263-.6.351z"></path><path d="m294.241 125.268c.519-.23.082-.942-.291-.712s-.218.943.291.712z"></path><path d="m290.254 87.7414c-.373.8779 1.166 1.1851 1.448.4389-.037-.6912-1.129-1.1741-1.448-.4389z"></path><path d="m295.07 74.3642c.473-.1863.173-.8112-.073-1.0085-.145.1754-.618 1.2826.073 1.0085z"></path><path d="m292.166 292.696c-.51-.197-.792.099-1.22.45 0 .691 0 1.438.683 1.591.207.041.419.016.616-.072.196-.089.37-.238.504-.433.049-.146.073-.303.07-.461s-.033-.314-.087-.458c-.055-.144-.133-.272-.23-.379-.098-.106-.212-.187-.336-.238z"></path></svg>